<svg xmlns="http://www.w3.org/2000/svg" xmlns:xlink="http://www.w3.org/1999/xlink" width="500" zoomAndPan="magnify" viewBox="0 0 375 374.999991" height="500" preserveAspectRatio="xMidYMid meet" version="1.0"><defs><g/></defs><g fill="#16896d" fill-opacity="0.7686"><g transform="translate(61.745583, 242.047639)"><g><path d="M 35.039062 -27.414062 C 32.976562 -17.683594 25.78125 -13.0625 19.964844 -12.210938 C 14.222656 -11.367188 8.050781 -13.953125 7.347656 -18.75 C 7.1875 -19.839844 7.152344 -21.097656 7.410156 -22.398438 L 12.824219 -49.253906 C 13.867188 -54.308594 16.742188 -55.472656 18.484375 -55.730469 C 20.15625 -55.972656 21.46875 -55.125 21.789062 -52.945312 C 21.9375 -51.929688 21.839844 -50.578125 21.472656 -49.039062 C 21.328125 -48.496094 21.328125 -47.976562 21.40625 -47.46875 C 21.777344 -44.925781 24.558594 -43.179688 27.394531 -43.59375 C 29.9375 -43.96875 32.515625 -46.128906 33.121094 -51.117188 C 33.351562 -53.082031 33.316406 -54.859375 33.089844 -56.386719 C 31.917969 -64.382812 24.914062 -68.105469 16.625 -66.890625 C 11.320312 -66.113281 3.425781 -62.726562 1.171875 -51.257812 L -4.109375 -23.976562 C -4.578125 -21.605469 -4.652344 -19.070312 -4.332031 -16.890625 C -2.9375 -7.367188 6.90625 -1.011719 19.554688 -2.867188 C 29.660156 -4.347656 41.476562 -11.355469 43.894531 -26.261719 C 43.953125 -26.867188 43.953125 -27.386719 43.890625 -27.820312 C 43.515625 -30.367188 41.050781 -31.488281 38.796875 -31.160156 C 36.90625 -30.882812 35.226562 -29.671875 35.039062 -27.414062 Z M 35.039062 -27.414062 "/></g></g></g><g fill="#16896d" fill-opacity="0.7686"><g transform="translate(97.291053, 236.835104)"><g><path d="M 41.976562 -31.253906 C 39.9375 -30.957031 37.867188 -29.390625 37.398438 -26.5 C 35.875 -17.140625 31.734375 -13.488281 28.460938 -13.011719 C 27.226562 -12.828125 26.402344 -13.375 26.234375 -14.539062 C 26.148438 -15.121094 26.1875 -15.871094 26.289062 -16.699219 L 30.976562 -41.445312 C 31.136719 -42.363281 31.167969 -43.183594 31.058594 -43.910156 C 30.589844 -47.109375 27.730469 -48.398438 25.039062 -48.003906 C 23.003906 -47.703125 21.035156 -46.449219 20.136719 -44.460938 C 18.472656 -45.183594 15.476562 -45.855469 11.769531 -45.3125 C 6.972656 -44.609375 2.121094 -41.226562 0.980469 -35.339844 L -2.984375 -14.785156 C -3.230469 -13.414062 -3.328125 -12.0625 -3.136719 -10.753906 C -2.25 -4.71875 3.34375 -0.492188 9.742188 -1.429688 C 13.15625 -1.929688 16.421875 -3.96875 18.761719 -6.761719 C 21.578125 -3.757812 26.824219 -3.933594 29.003906 -4.253906 C 35.039062 -5.136719 42.660156 -9.375 45.582031 -21.832031 C 46.1875 -24.816406 46.71875 -26.75 46.527344 -28.058594 C 46.164062 -30.53125 44.082031 -31.5625 41.976562 -31.253906 Z M 17.878906 -28.460938 L 15.980469 -17.121094 C 15.144531 -12.171875 12.542969 -10.675781 11.015625 -10.453125 C 9.417969 -10.21875 8.46875 -11.117188 8.222656 -12.789062 C 8.085938 -13.734375 8.175781 -14.640625 8.296875 -15.324219 L 10.804688 -30.617188 C 11.539062 -35.253906 13.488281 -36.136719 14.652344 -36.304688 C 16.03125 -36.507812 17.761719 -35.351562 18.125 -32.878906 C 18.28125 -31.789062 18.195312 -30.367188 17.878906 -28.460938 Z M 17.878906 -28.460938 "/></g></g></g><g fill="#16896d" fill-opacity="0.7686"><g transform="translate(135.453372, 231.238822)"><g><path d="M 37.492188 -26.882812 C 35.574219 -17.691406 32.097656 -13.542969 28.679688 -13.042969 C 27.371094 -12.851562 26.550781 -13.398438 26.367188 -14.632812 C 26.292969 -15.140625 26.351562 -15.746094 26.464844 -16.503906 L 29.769531 -33.472656 C 30.0625 -35 30.164062 -36.351562 29.980469 -37.589844 C 29.128906 -43.402344 23.546875 -47.039062 17.730469 -46.1875 C 14.894531 -45.773438 12.738281 -44.789062 11.050781 -43.128906 C 10.421875 -44.375 8.5 -44.835938 6.535156 -44.546875 C 4.5 -44.246094 2.675781 -43.015625 2.25 -40.871094 L -4.914062 -5.144531 C -5.035156 -4.460938 -5.023438 -3.867188 -4.9375 -3.285156 C -4.542969 -0.597656 -2.230469 0.476562 0.09375 0.132812 C 2.636719 -0.238281 5.3125 -2.265625 5.921875 -5.695312 C 7.433594 -13.121094 9.460938 -23.589844 10.910156 -30.929688 C 12.339844 -34.851562 14.628906 -36.96875 16.664062 -37.269531 C 17.972656 -37.460938 19.042969 -36.726562 19.246094 -35.347656 C 19.320312 -34.835938 19.273438 -34.160156 19.148438 -33.476562 L 16.039062 -17.722656 C 15.703125 -15.964844 15.574219 -14.3125 15.796875 -12.785156 C 16.777344 -6.097656 22.824219 -3.347656 29.003906 -4.253906 C 36.417969 -5.339844 43.605469 -11.519531 46.542969 -26.429688 C 46.675781 -27.042969 46.738281 -27.644531 46.660156 -28.152344 C 46.320312 -30.480469 44.03125 -31.40625 41.851562 -31.085938 C 39.886719 -30.800781 37.867188 -29.390625 37.492188 -26.882812 Z M 37.492188 -26.882812 "/></g></g></g><g fill="#16896d" fill-opacity="0.7686"><g transform="translate(173.61569, 225.642541)"><g><path d="M 32.015625 -26.75 C 29.683594 -16.828125 23.144531 -12.304688 17.621094 -11.496094 C 12.605469 -10.757812 8.980469 -13.199219 8.4375 -16.90625 C 8.320312 -17.703125 8.335938 -18.597656 8.488281 -19.585938 L 11.078125 -32.8125 C 11.476562 -34.652344 12.769531 -35.957031 13.933594 -36.125 C 15.386719 -36.339844 16.242188 -35.574219 16.425781 -34.339844 C 16.542969 -33.539062 16.378906 -32.625 16.019531 -31.53125 C 15.761719 -30.75 15.652344 -29.992188 15.757812 -29.265625 C 16.128906 -26.722656 18.816406 -25.109375 21.359375 -25.484375 C 23.46875 -25.792969 25.53125 -27.429688 26.347656 -30.96875 C 26.789062 -33.035156 26.824219 -34.824219 26.578125 -36.496094 C 25.574219 -43.328125 19.332031 -46.421875 13.078125 -45.503906 C 7.335938 -44.664062 1.648438 -40.414062 0.148438 -32.398438 L -2.203125 -19.578125 C -2.527344 -17.746094 -2.5625 -15.960938 -2.328125 -14.359375 C -1.101562 -6 7.050781 -1.035156 17.738281 -2.601562 C 28.496094 -4.179688 38.210938 -11.839844 40.925781 -25.753906 C 41.070312 -26.292969 41.066406 -26.8125 41.003906 -27.25 C 40.660156 -29.574219 38.195312 -30.699219 35.941406 -30.367188 C 34.125 -30.101562 32.433594 -28.964844 32.015625 -26.75 Z M 32.015625 -26.75 "/></g></g></g><g fill="#16896d" fill-opacity="0.7686"><g transform="translate(206.108175, 220.877708)"><g><path d="M 38.34375 -27.15625 C 36.421875 -17.964844 32.824219 -13.648438 29.554688 -13.171875 C 28.171875 -12.96875 27.183594 -13.640625 27.023438 -14.730469 C 26.980469 -15.019531 27 -15.394531 27.101562 -15.707031 L 30.578125 -33.519531 C 30.886719 -34.972656 30.839844 -36.304688 30.65625 -37.539062 C 29.804688 -43.355469 24.5625 -47.191406 18.675781 -46.328125 C 16.929688 -46.070312 15.59375 -45.578125 14.164062 -44.699219 L 16.78125 -58.746094 C 16.972656 -59.960938 17.175781 -61.105469 17.039062 -62.050781 C 16.589844 -65.105469 13.9375 -66.496094 11.539062 -66.144531 C 8.703125 -65.730469 7.203125 -63.800781 6.386719 -59.746094 L -3.8125 -7.757812 C -4.023438 -6.6875 -4.03125 -5.71875 -3.902344 -4.847656 C -3.425781 -1.578125 -0.726562 0.105469 1.746094 -0.253906 C 3.851562 -0.566406 5.839844 -2.191406 6.484375 -5.40625 L 11.632812 -31.554688 C 12.753906 -34.542969 14.917969 -37.011719 17.171875 -37.34375 C 18.625 -37.558594 19.804688 -36.617188 19.996094 -35.308594 C 20.058594 -34.871094 20.050781 -34.425781 19.894531 -33.957031 L 16.816406 -17.984375 C 16.492188 -16.15625 16.433594 -14.515625 16.648438 -13.058594 C 17.652344 -6.226562 23.988281 -3.519531 30.167969 -4.425781 C 37.074219 -5.4375 44.367188 -10.886719 47.382812 -26.773438 C 47.453125 -27.304688 47.464844 -27.75 47.398438 -28.1875 C 47.070312 -30.441406 44.675781 -31.574219 42.347656 -31.234375 C 40.53125 -30.96875 38.71875 -29.664062 38.34375 -27.15625 Z M 38.34375 -27.15625 "/></g></g></g><g fill="#16896d" fill-opacity="0.7686"><g transform="translate(245.070079, 215.164172)"><g><path d="M 12.316406 -52.226562 C 15.585938 -52.703125 17.882812 -55.789062 17.390625 -59.132812 C 16.914062 -62.402344 13.839844 -64.625 10.566406 -64.148438 C 7.296875 -63.667969 4.992188 -60.65625 5.46875 -57.382812 C 5.960938 -54.039062 9.046875 -51.746094 12.316406 -52.226562 Z M 7.9375 -13.714844 L 12.589844 -37.710938 C 12.742188 -38.699219 12.953125 -39.769531 12.847656 -40.496094 C 12.378906 -43.695312 9.734375 -45.015625 7.261719 -44.652344 C 5.011719 -44.324219 2.84375 -42.371094 2.183594 -38.785156 C 0.859375 -31.609375 -0.925781 -22.511719 -2.261719 -15.410156 C -2.484375 -13.894531 -2.777344 -11.84375 -2.59375 -10.609375 C -1.59375 -3.777344 4.652344 -0.683594 11.339844 -1.664062 C 18.464844 -2.707031 25.675781 -8.21875 28.558594 -24.015625 C 28.636719 -24.472656 28.648438 -24.917969 28.582031 -25.355469 C 28.253906 -27.609375 25.871094 -28.667969 23.6875 -28.347656 C 21.726562 -28.0625 19.914062 -26.757812 19.371094 -24.375 C 17.339844 -14.421875 13.925781 -10.878906 11.015625 -10.453125 C 9.34375 -10.207031 8.09375 -11.136719 7.890625 -12.519531 C 7.839844 -12.882812 7.859375 -13.257812 7.9375 -13.714844 Z M 7.9375 -13.714844 "/></g></g></g><g fill="#16896d" fill-opacity="0.7686"><g transform="translate(265.132553, 212.222127)"><g><path d="M 22.945312 -24.304688 C 21.210938 -15.882812 17.195312 -11.359375 12.980469 -10.738281 C 10.363281 -10.355469 8.527344 -11.71875 8.242188 -13.683594 C 8.164062 -14.191406 8.226562 -14.796875 8.296875 -15.324219 L 12.445312 -36.652344 L 17.171875 -37.34375 C 20.878906 -37.886719 22.457031 -40.792969 22.105469 -43.191406 C 21.828125 -45.082031 20.347656 -46.570312 17.585938 -46.167969 L 14.316406 -45.6875 L 17.105469 -60.574219 C 17.175781 -61.105469 17.1875 -61.554688 17.121094 -61.988281 C 16.726562 -64.679688 14.515625 -66.582031 11.320312 -66.113281 C 8.921875 -65.761719 7.128906 -63.792969 6.628906 -61.117188 L 3.191406 -44.054688 L 0.140625 -43.609375 C -3.785156 -43.03125 -5.09375 -40.316406 -4.753906 -37.988281 C -4.457031 -35.953125 -2.964844 -34.390625 -1 -34.679688 L 1.398438 -35.03125 L -2.140625 -16.617188 L -2.148438 -16.6875 C -2.476562 -14.859375 -2.53125 -13.21875 -2.308594 -11.691406 C -1.222656 -4.277344 6.035156 -0.886719 13.519531 -1.984375 C 22.824219 -3.347656 29.589844 -11.394531 31.984375 -23.921875 C 32.054688 -24.453125 32.128906 -24.984375 32.0625 -25.417969 C 31.742188 -27.601562 29.433594 -28.671875 27.179688 -28.339844 C 25.363281 -28.074219 23.476562 -26.757812 22.945312 -24.304688 Z M 22.945312 -24.304688 "/></g></g></g><g fill="#16896d" fill-opacity="0.7686"><g transform="translate(288.90222, 208.736445)"><g><path d="M 41.976562 -31.253906 C 39.9375 -30.957031 37.867188 -29.390625 37.398438 -26.5 C 35.875 -17.140625 31.734375 -13.488281 28.460938 -13.011719 C 27.226562 -12.828125 26.402344 -13.375 26.234375 -14.539062 C 26.148438 -15.121094 26.1875 -15.871094 26.289062 -16.699219 L 30.976562 -41.445312 C 31.136719 -42.363281 31.167969 -43.183594 31.058594 -43.910156 C 30.589844 -47.109375 27.730469 -48.398438 25.039062 -48.003906 C 23.003906 -47.703125 21.035156 -46.449219 20.136719 -44.460938 C 18.472656 -45.183594 15.476562 -45.855469 11.769531 -45.3125 C 6.972656 -44.609375 2.121094 -41.226562 0.980469 -35.339844 L -2.984375 -14.785156 C -3.230469 -13.414062 -3.328125 -12.0625 -3.136719 -10.753906 C -2.25 -4.71875 3.34375 -0.492188 9.742188 -1.429688 C 13.15625 -1.929688 16.421875 -3.96875 18.761719 -6.761719 C 21.578125 -3.757812 26.824219 -3.933594 29.003906 -4.253906 C 35.039062 -5.136719 42.660156 -9.375 45.582031 -21.832031 C 46.1875 -24.816406 46.71875 -26.75 46.527344 -28.058594 C 46.164062 -30.53125 44.082031 -31.5625 41.976562 -31.253906 Z M 17.878906 -28.460938 L 15.980469 -17.121094 C 15.144531 -12.171875 12.542969 -10.675781 11.015625 -10.453125 C 9.417969 -10.21875 8.46875 -11.117188 8.222656 -12.789062 C 8.085938 -13.734375 8.175781 -14.640625 8.296875 -15.324219 L 10.804688 -30.617188 C 11.539062 -35.253906 13.488281 -36.136719 14.652344 -36.304688 C 16.03125 -36.507812 17.761719 -35.351562 18.125 -32.878906 C 18.28125 -31.789062 18.195312 -30.367188 17.878906 -28.460938 Z M 17.878906 -28.460938 "/></g></g></g><g fill="#a6a6a6" fill-opacity="1"><g transform="translate(59.685757, 240.082155)"><g><path d="M 35.039062 -27.414062 C 32.976562 -17.683594 25.78125 -13.0625 19.964844 -12.210938 C 14.222656 -11.367188 8.050781 -13.953125 7.347656 -18.75 C 7.1875 -19.839844 7.152344 -21.097656 7.410156 -22.398438 L 12.824219 -49.253906 C 13.867188 -54.308594 16.742188 -55.472656 18.484375 -55.730469 C 20.15625 -55.972656 21.46875 -55.125 21.789062 -52.945312 C 21.9375 -51.929688 21.839844 -50.578125 21.472656 -49.039062 C 21.328125 -48.496094 21.328125 -47.976562 21.40625 -47.46875 C 21.777344 -44.925781 24.558594 -43.179688 27.394531 -43.59375 C 29.9375 -43.96875 32.515625 -46.128906 33.121094 -51.117188 C 33.351562 -53.082031 33.316406 -54.859375 33.089844 -56.386719 C 31.917969 -64.382812 24.914062 -68.105469 16.625 -66.890625 C 11.320312 -66.113281 3.425781 -62.726562 1.171875 -51.257812 L -4.109375 -23.976562 C -4.578125 -21.605469 -4.652344 -19.070312 -4.332031 -16.890625 C -2.9375 -7.367188 6.90625 -1.011719 19.554688 -2.867188 C 29.660156 -4.347656 41.476562 -11.355469 43.894531 -26.261719 C 43.953125 -26.867188 43.953125 -27.386719 43.890625 -27.820312 C 43.515625 -30.367188 41.050781 -31.488281 38.796875 -31.160156 C 36.90625 -30.882812 35.226562 -29.671875 35.039062 -27.414062 Z M 35.039062 -27.414062 "/></g></g></g><g fill="#a6a6a6" fill-opacity="1"><g transform="translate(95.231227, 234.869619)"><g><path d="M 41.976562 -31.253906 C 39.9375 -30.957031 37.867188 -29.390625 37.398438 -26.5 C 35.875 -17.140625 31.734375 -13.488281 28.460938 -13.011719 C 27.226562 -12.828125 26.402344 -13.375 26.234375 -14.539062 C 26.148438 -15.121094 26.1875 -15.871094 26.289062 -16.699219 L 30.976562 -41.445312 C 31.136719 -42.363281 31.167969 -43.183594 31.058594 -43.910156 C 30.589844 -47.109375 27.730469 -48.398438 25.039062 -48.003906 C 23.003906 -47.703125 21.035156 -46.449219 20.136719 -44.460938 C 18.472656 -45.183594 15.476562 -45.855469 11.769531 -45.3125 C 6.972656 -44.609375 2.121094 -41.226562 0.980469 -35.339844 L -2.984375 -14.785156 C -3.230469 -13.414062 -3.328125 -12.0625 -3.136719 -10.753906 C -2.25 -4.71875 3.34375 -0.492188 9.742188 -1.429688 C 13.15625 -1.929688 16.421875 -3.96875 18.761719 -6.761719 C 21.578125 -3.757812 26.824219 -3.933594 29.003906 -4.253906 C 35.039062 -5.136719 42.660156 -9.375 45.582031 -21.832031 C 46.1875 -24.816406 46.71875 -26.75 46.527344 -28.058594 C 46.164062 -30.53125 44.082031 -31.5625 41.976562 -31.253906 Z M 17.878906 -28.460938 L 15.980469 -17.121094 C 15.144531 -12.171875 12.542969 -10.675781 11.015625 -10.453125 C 9.417969 -10.21875 8.46875 -11.117188 8.222656 -12.789062 C 8.085938 -13.734375 8.175781 -14.640625 8.296875 -15.324219 L 10.804688 -30.617188 C 11.539062 -35.253906 13.488281 -36.136719 14.652344 -36.304688 C 16.03125 -36.507812 17.761719 -35.351562 18.125 -32.878906 C 18.28125 -31.789062 18.195312 -30.367188 17.878906 -28.460938 Z M 17.878906 -28.460938 "/></g></g></g><g fill="#a6a6a6" fill-opacity="1"><g transform="translate(133.393546, 229.273338)"><g><path d="M 37.492188 -26.882812 C 35.574219 -17.691406 32.097656 -13.542969 28.679688 -13.042969 C 27.371094 -12.851562 26.550781 -13.398438 26.367188 -14.632812 C 26.292969 -15.140625 26.351562 -15.746094 26.464844 -16.503906 L 29.769531 -33.472656 C 30.0625 -35 30.164062 -36.351562 29.980469 -37.589844 C 29.128906 -43.402344 23.546875 -47.039062 17.730469 -46.1875 C 14.894531 -45.773438 12.738281 -44.789062 11.050781 -43.128906 C 10.421875 -44.375 8.5 -44.835938 6.535156 -44.546875 C 4.5 -44.246094 2.675781 -43.015625 2.25 -40.871094 L -4.914062 -5.144531 C -5.035156 -4.460938 -5.023438 -3.867188 -4.9375 -3.285156 C -4.542969 -0.597656 -2.230469 0.476562 0.09375 0.132812 C 2.636719 -0.238281 5.3125 -2.265625 5.921875 -5.695312 C 7.433594 -13.121094 9.460938 -23.589844 10.910156 -30.929688 C 12.339844 -34.851562 14.628906 -36.96875 16.664062 -37.269531 C 17.972656 -37.460938 19.042969 -36.726562 19.246094 -35.347656 C 19.320312 -34.835938 19.273438 -34.160156 19.148438 -33.476562 L 16.039062 -17.722656 C 15.703125 -15.964844 15.574219 -14.3125 15.796875 -12.785156 C 16.777344 -6.097656 22.824219 -3.347656 29.003906 -4.253906 C 36.417969 -5.339844 43.605469 -11.519531 46.542969 -26.429688 C 46.675781 -27.042969 46.738281 -27.644531 46.660156 -28.152344 C 46.320312 -30.480469 44.03125 -31.40625 41.851562 -31.085938 C 39.886719 -30.800781 37.867188 -29.390625 37.492188 -26.882812 Z M 37.492188 -26.882812 "/></g></g></g><g fill="#a6a6a6" fill-opacity="1"><g transform="translate(171.555865, 223.677056)"><g><path d="M 32.015625 -26.75 C 29.683594 -16.828125 23.144531 -12.304688 17.621094 -11.496094 C 12.605469 -10.757812 8.980469 -13.199219 8.4375 -16.90625 C 8.320312 -17.703125 8.335938 -18.597656 8.488281 -19.585938 L 11.078125 -32.8125 C 11.476562 -34.652344 12.769531 -35.957031 13.933594 -36.125 C 15.386719 -36.339844 16.242188 -35.574219 16.425781 -34.339844 C 16.542969 -33.539062 16.378906 -32.625 16.019531 -31.53125 C 15.761719 -30.75 15.652344 -29.992188 15.757812 -29.265625 C 16.128906 -26.722656 18.816406 -25.109375 21.359375 -25.484375 C 23.46875 -25.792969 25.53125 -27.429688 26.347656 -30.96875 C 26.789062 -33.035156 26.824219 -34.824219 26.578125 -36.496094 C 25.574219 -43.328125 19.332031 -46.421875 13.078125 -45.503906 C 7.335938 -44.664062 1.648438 -40.414062 0.148438 -32.398438 L -2.203125 -19.578125 C -2.527344 -17.746094 -2.5625 -15.960938 -2.328125 -14.359375 C -1.101562 -6 7.050781 -1.035156 17.738281 -2.601562 C 28.496094 -4.179688 38.210938 -11.839844 40.925781 -25.753906 C 41.070312 -26.292969 41.066406 -26.8125 41.003906 -27.25 C 40.660156 -29.574219 38.195312 -30.699219 35.941406 -30.367188 C 34.125 -30.101562 32.433594 -28.964844 32.015625 -26.75 Z M 32.015625 -26.75 "/></g></g></g><g fill="#a6a6a6" fill-opacity="1"><g transform="translate(204.048349, 218.912223)"><g><path d="M 38.34375 -27.15625 C 36.421875 -17.964844 32.824219 -13.648438 29.554688 -13.171875 C 28.171875 -12.96875 27.183594 -13.640625 27.023438 -14.730469 C 26.980469 -15.019531 27 -15.394531 27.101562 -15.707031 L 30.578125 -33.519531 C 30.886719 -34.972656 30.839844 -36.304688 30.65625 -37.539062 C 29.804688 -43.355469 24.5625 -47.191406 18.675781 -46.328125 C 16.929688 -46.070312 15.59375 -45.578125 14.164062 -44.699219 L 16.78125 -58.746094 C 16.972656 -59.960938 17.175781 -61.105469 17.039062 -62.050781 C 16.589844 -65.105469 13.9375 -66.496094 11.539062 -66.144531 C 8.703125 -65.730469 7.203125 -63.800781 6.386719 -59.746094 L -3.8125 -7.757812 C -4.023438 -6.6875 -4.03125 -5.71875 -3.902344 -4.847656 C -3.425781 -1.578125 -0.726562 0.105469 1.746094 -0.253906 C 3.851562 -0.566406 5.839844 -2.191406 6.484375 -5.40625 L 11.632812 -31.554688 C 12.753906 -34.542969 14.917969 -37.011719 17.171875 -37.34375 C 18.625 -37.558594 19.804688 -36.617188 19.996094 -35.308594 C 20.058594 -34.871094 20.050781 -34.425781 19.894531 -33.957031 L 16.816406 -17.984375 C 16.492188 -16.15625 16.433594 -14.515625 16.648438 -13.058594 C 17.652344 -6.226562 23.988281 -3.519531 30.167969 -4.425781 C 37.074219 -5.4375 44.367188 -10.886719 47.382812 -26.773438 C 47.453125 -27.304688 47.464844 -27.75 47.398438 -28.1875 C 47.070312 -30.441406 44.675781 -31.574219 42.347656 -31.234375 C 40.53125 -30.96875 38.71875 -29.664062 38.34375 -27.15625 Z M 38.34375 -27.15625 "/></g></g></g><g fill="#a6a6a6" fill-opacity="1"><g transform="translate(243.010253, 213.198687)"><g><path d="M 12.316406 -52.226562 C 15.585938 -52.703125 17.882812 -55.789062 17.390625 -59.132812 C 16.914062 -62.402344 13.839844 -64.625 10.566406 -64.148438 C 7.296875 -63.667969 4.992188 -60.65625 5.46875 -57.382812 C 5.960938 -54.039062 9.046875 -51.746094 12.316406 -52.226562 Z M 7.9375 -13.714844 L 12.589844 -37.710938 C 12.742188 -38.699219 12.953125 -39.769531 12.847656 -40.496094 C 12.378906 -43.695312 9.734375 -45.015625 7.261719 -44.652344 C 5.011719 -44.324219 2.84375 -42.371094 2.183594 -38.785156 C 0.859375 -31.609375 -0.925781 -22.511719 -2.261719 -15.410156 C -2.484375 -13.894531 -2.777344 -11.84375 -2.59375 -10.609375 C -1.59375 -3.777344 4.652344 -0.683594 11.339844 -1.664062 C 18.464844 -2.707031 25.675781 -8.21875 28.558594 -24.015625 C 28.636719 -24.472656 28.648438 -24.917969 28.582031 -25.355469 C 28.253906 -27.609375 25.871094 -28.667969 23.6875 -28.347656 C 21.726562 -28.0625 19.914062 -26.757812 19.371094 -24.375 C 17.339844 -14.421875 13.925781 -10.878906 11.015625 -10.453125 C 9.34375 -10.207031 8.09375 -11.136719 7.890625 -12.519531 C 7.839844 -12.882812 7.859375 -13.257812 7.9375 -13.714844 Z M 7.9375 -13.714844 "/></g></g></g><g fill="#a6a6a6" fill-opacity="1"><g transform="translate(263.072727, 210.256643)"><g><path d="M 22.945312 -24.304688 C 21.210938 -15.882812 17.195312 -11.359375 12.980469 -10.738281 C 10.363281 -10.355469 8.527344 -11.71875 8.242188 -13.683594 C 8.164062 -14.191406 8.226562 -14.796875 8.296875 -15.324219 L 12.445312 -36.652344 L 17.171875 -37.34375 C 20.878906 -37.886719 22.457031 -40.792969 22.105469 -43.191406 C 21.828125 -45.082031 20.347656 -46.570312 17.585938 -46.167969 L 14.316406 -45.6875 L 17.105469 -60.574219 C 17.175781 -61.105469 17.1875 -61.554688 17.121094 -61.988281 C 16.726562 -64.679688 14.515625 -66.582031 11.320312 -66.113281 C 8.921875 -65.761719 7.128906 -63.792969 6.628906 -61.117188 L 3.191406 -44.054688 L 0.140625 -43.609375 C -3.785156 -43.03125 -5.09375 -40.316406 -4.753906 -37.988281 C -4.457031 -35.953125 -2.964844 -34.390625 -1 -34.679688 L 1.398438 -35.03125 L -2.140625 -16.617188 L -2.148438 -16.6875 C -2.476562 -14.859375 -2.53125 -13.21875 -2.308594 -11.691406 C -1.222656 -4.277344 6.035156 -0.886719 13.519531 -1.984375 C 22.824219 -3.347656 29.589844 -11.394531 31.984375 -23.921875 C 32.054688 -24.453125 32.128906 -24.984375 32.0625 -25.417969 C 31.742188 -27.601562 29.433594 -28.671875 27.179688 -28.339844 C 25.363281 -28.074219 23.476562 -26.757812 22.945312 -24.304688 Z M 22.945312 -24.304688 "/></g></g></g><g fill="#a6a6a6" fill-opacity="1"><g transform="translate(286.842394, 206.77096)"><g><path d="M 41.976562 -31.253906 C 39.9375 -30.957031 37.867188 -29.390625 37.398438 -26.5 C 35.875 -17.140625 31.734375 -13.488281 28.460938 -13.011719 C 27.226562 -12.828125 26.402344 -13.375 26.234375 -14.539062 C 26.148438 -15.121094 26.1875 -15.871094 26.289062 -16.699219 L 30.976562 -41.445312 C 31.136719 -42.363281 31.167969 -43.183594 31.058594 -43.910156 C 30.589844 -47.109375 27.730469 -48.398438 25.039062 -48.003906 C 23.003906 -47.703125 21.035156 -46.449219 20.136719 -44.460938 C 18.472656 -45.183594 15.476562 -45.855469 11.769531 -45.3125 C 6.972656 -44.609375 2.121094 -41.226562 0.980469 -35.339844 L -2.984375 -14.785156 C -3.230469 -13.414062 -3.328125 -12.0625 -3.136719 -10.753906 C -2.25 -4.71875 3.34375 -0.492188 9.742188 -1.429688 C 13.15625 -1.929688 16.421875 -3.96875 18.761719 -6.761719 C 21.578125 -3.757812 26.824219 -3.933594 29.003906 -4.253906 C 35.039062 -5.136719 42.660156 -9.375 45.582031 -21.832031 C 46.1875 -24.816406 46.71875 -26.75 46.527344 -28.058594 C 46.164062 -30.53125 44.082031 -31.5625 41.976562 -31.253906 Z M 17.878906 -28.460938 L 15.980469 -17.121094 C 15.144531 -12.171875 12.542969 -10.675781 11.015625 -10.453125 C 9.417969 -10.21875 8.46875 -11.117188 8.222656 -12.789062 C 8.085938 -13.734375 8.175781 -14.640625 8.296875 -15.324219 L 10.804688 -30.617188 C 11.539062 -35.253906 13.488281 -36.136719 14.652344 -36.304688 C 16.03125 -36.507812 17.761719 -35.351562 18.125 -32.878906 C 18.28125 -31.789062 18.195312 -30.367188 17.878906 -28.460938 Z M 17.878906 -28.460938 "/></g></g></g></svg>