<?xml version="1.0" encoding="iso-8859-1"?>
<!-- Uploaded to: SVG Repo, www.svgrepo.com, Generator: SVG Repo Mixer Tools -->
<svg fill="#000000" height="800px" width="800px" version="1.1" id="Layer_1" xmlns="http://www.w3.org/2000/svg" xmlns:xlink="http://www.w3.org/1999/xlink" 
	 viewBox="0 0 512 512" xml:space="preserve">
<g>
	<g>
		<path d="M511.986,187.373c-3.048-52.265-24.493-100.02-58.837-131.024c-0.138-0.124-0.278-0.244-0.422-0.356
			C422.32,27.172,382.953,8.281,341.372,2.645c-42.047-5.703-85.654,2.147-122.781,22.093
			c-18.588,9.984-36.103,23.595-53.542,41.612c-18.872,19.49-33.518,37.793-44.778,55.955
			c-16.287,26.272-24.545,58.713-24.545,96.425c0,1.073,0.149,1.963,0.263,2.583v143.159L2.468,457.288
			C0.888,458.855,0,460.988,0,463.213s0.888,4.358,2.468,5.925l39.908,39.608c1.627,1.615,3.754,2.423,5.88,2.423
			c2.126,0,4.253-0.808,5.88-2.423l93.547-92.844h164.066c0.935,0,1.835-0.155,2.677-0.44
			c60.176-2.273,113.878-48.489,148.517-87.165c15.537-17.347,27.443-36.821,36.4-59.532c1.692-4.29-0.415-9.137-4.704-10.829
			c-4.289-1.687-9.137,0.415-10.829,4.705c-8.216,20.838-19.111,38.67-33.305,54.517c-32.904,36.737-83.708,80.729-138.879,81.68
			c-0.805,0.014-1.581,0.141-2.315,0.367h-43.14l-91.647-91.546c-3.261-3.256-8.547-3.256-11.805,0.007
			c-3.258,3.262-3.256,8.548,0.007,11.806l79.821,79.733h-98.302c-2.203,0-4.316,0.87-5.88,2.423l-90.109,89.432l-28.058-27.847
			l90.018-89.34c1.579-1.567,2.468-3.7,2.468-5.925v-98.463l16.926,16.907c1.63,1.627,3.764,2.441,5.899,2.441
			c2.137,0,4.276-0.816,5.906-2.448c3.258-3.262,3.256-8.548-0.007-11.806l-28.724-28.693v-25.273c0-0.373-0.025-0.745-0.075-1.114
			c-0.048-0.358-0.111-0.716-0.175-1.066l-0.012-0.07c0.052-34.399,7.466-63.755,22.039-87.26
			c10.622-17.136,24.552-34.518,42.583-53.141c16.225-16.761,32.398-29.359,49.447-38.516
			c34.049-18.294,74.051-25.484,112.638-20.256c39.504,5.356,76.825,23.753,105.089,51.807c0.388,0.386,0.806,0.726,1.245,1.02
			c29.072,28.138,47.167,70.231,49.855,116.33c0.268,4.602,4.224,8.111,8.82,7.848C508.741,195.923,512.255,191.975,511.986,187.373
			z"/>
	</g>
</g>
</svg>